<svg id="visual" viewBox="0 0 1444 700" width="1444" height="700" xmlns="http://www.w3.org/2000/svg" xmlns:xlink="http://www.w3.org/1999/xlink" version="1.1"><rect x="0" y="0" width="1444" height="700" fill="#000"></rect><defs><linearGradient id="grad1_0" x1="51.5%" y1="100%" x2="100%" y2="0%"><stop offset="8.742857142857144%" stop-color="#000000" stop-opacity="1"></stop><stop offset="91.25714285714285%" stop-color="#000000" stop-opacity="1"></stop></linearGradient></defs><defs><linearGradient id="grad2_0" x1="0%" y1="100%" x2="48.5%" y2="0%"><stop offset="8.742857142857144%" stop-color="#000000" stop-opacity="1"></stop><stop offset="91.25714285714285%" stop-color="#000000" stop-opacity="1"></stop></linearGradient></defs><g transform="translate(1444, 700)"><path d="M-630 0C-572.2 -67 -514.4 -133.9 -477.6 -197.8C-440.9 -261.8 -425.3 -322.6 -392.4 -392.4C-359.6 -462.2 -309.4 -541 -241.1 -582C-172.8 -623.1 -86.4 -626.6 0 -630L0 0Z" fill="#ff0027"></path></g><g transform="translate(0, 0)"><path d="M630 0C621.7 86.9 613.3 173.7 571.9 236.9C530.5 300 456 339.5 399.5 399.5C343.1 459.6 304.7 540.2 241.1 582C177.5 623.9 88.8 626.9 0 630L0 0Z" fill="#ff0027"></path></g></svg>