<svg id="visual" viewBox="0 0 1444 700" width="1444" height="700" xmlns="http://www.w3.org/2000/svg" xmlns:xlink="http://www.w3.org/1999/xlink" version="1.1"><rect x="0" y="0" width="1444" height="700" fill="#000"></rect><defs><linearGradient id="grad1_0" x1="51.5%" y1="0%" x2="100%" y2="100%"><stop offset="8.742857142857144%" stop-color="#000000" stop-opacity="1"></stop><stop offset="91.25714285714285%" stop-color="#000000" stop-opacity="1"></stop></linearGradient></defs><defs><linearGradient id="grad2_0" x1="0%" y1="0%" x2="48.5%" y2="100%"><stop offset="8.742857142857144%" stop-color="#000000" stop-opacity="1"></stop><stop offset="91.25714285714285%" stop-color="#000000" stop-opacity="1"></stop></linearGradient></defs><g transform="translate(1444, 0)"><path d="M0 630C-67 572.2 -133.9 514.4 -197.8 477.6C-261.8 440.9 -322.6 425.3 -392.4 392.4C-462.2 359.6 -541 309.4 -582 241.1C-623.1 172.8 -626.6 86.4 -630 0L0 0Z" fill="#ff0027"></path></g><g transform="translate(0, 700)"><path d="M0 -630C86.9 -621.7 173.7 -613.3 236.9 -571.9C300 -530.5 339.5 -456 399.5 -399.5C459.6 -343.1 540.2 -304.7 582 -241.1C623.9 -177.5 626.9 -88.8 630 0L0 0Z" fill="#ff0027"></path></g></svg>