<svg id="visual" viewBox="0 0 410 600" width="410" height="600" xmlns="http://www.w3.org/2000/svg" xmlns:xlink="http://www.w3.org/1999/xlink" version="1.1"><rect x="0" y="0" width="410" height="600" fill="#000"></rect><defs><linearGradient id="grad1_0" x1="0%" y1="0%" x2="100%" y2="100%"><stop offset="30%" stop-color="#000000" stop-opacity="1"></stop><stop offset="70%" stop-color="#000000" stop-opacity="1"></stop></linearGradient></defs><defs><linearGradient id="grad2_0" x1="0%" y1="0%" x2="100%" y2="100%"><stop offset="30%" stop-color="#000000" stop-opacity="1"></stop><stop offset="70%" stop-color="#000000" stop-opacity="1"></stop></linearGradient></defs><g transform="translate(410, 0)"><path d="M0 327C-48.9 328.2 -97.8 329.4 -125.1 302.1C-152.5 274.8 -158.2 219 -188.1 188.1C-218 157.2 -272.1 151.2 -299.3 124C-326.5 96.8 -326.8 48.4 -327 0L0 0Z" fill="#ff0027"></path></g><g transform="translate(0, 600)"><path d="M0 -327C41.5 -319.5 82.9 -311.9 123.2 -297.5C163.5 -283.1 202.7 -261.8 231.2 -231.2C259.8 -200.7 277.7 -161 291.9 -120.9C306.1 -80.9 316.6 -40.4 327 0L0 0Z" fill="#ff0027"></path></g></svg>