<svg id="visual" viewBox="0 0 410 300" width="410" height="300" xmlns="http://www.w3.org/2000/svg" xmlns:xlink="http://www.w3.org/1999/xlink" version="1.1"><rect x="0" y="0" width="410" height="300" fill="#000"></rect><defs><linearGradient id="grad1_0" x1="26.8%" y1="0%" x2="100%" y2="100%"><stop offset="22.666666666666668%" stop-color="#000000" stop-opacity="1"></stop><stop offset="77.33333333333333%" stop-color="#000000" stop-opacity="1"></stop></linearGradient></defs><defs><linearGradient id="grad2_0" x1="0%" y1="0%" x2="73.2%" y2="100%"><stop offset="22.666666666666668%" stop-color="#000000" stop-opacity="1"></stop><stop offset="77.33333333333333%" stop-color="#000000" stop-opacity="1"></stop></linearGradient></defs><g transform="translate(410, 0)"><path d="M0 228.6C-19.7 230.7 -39.4 232.7 -49.6 217.4C-59.9 202.1 -60.7 169.4 -80.3 166.7C-99.9 164 -138.2 191.2 -142.5 178.7C-146.9 166.3 -117.1 114.2 -116.5 92.9C-115.9 71.6 -144.4 81.3 -163.1 78.5C-181.7 75.8 -190.6 60.8 -199.9 45.6C-209.1 30.5 -218.9 15.2 -228.6 0L0 0Z" fill="#ff0027"></path></g><g transform="translate(0, 300)"><path d="M0 -228.6C11.2 -196.9 22.4 -165.2 36.3 -158.9C50.1 -152.6 66.6 -171.8 87.6 -182C108.7 -192.2 134.5 -193.4 140.3 -175.9C146.1 -158.4 132.1 -122.2 127.4 -101.6C122.8 -81.1 127.7 -76.2 148.7 -71.6C169.7 -67 206.9 -62.8 222.9 -50.9C238.9 -39 233.8 -19.5 228.6 0L0 0Z" fill="#ff0027"></path></g></svg>