<svg id="visual" viewBox="0 0 410 600" width="410" height="600" xmlns="http://www.w3.org/2000/svg" xmlns:xlink="http://www.w3.org/1999/xlink" version="1.1"><rect x="0" y="0" width="410" height="600" fill="#000"></rect><defs><linearGradient id="grad1_0" x1="0%" y1="100%" x2="100%" y2="0%"><stop offset="30%" stop-color="#000000" stop-opacity="1"></stop><stop offset="70%" stop-color="#000000" stop-opacity="1"></stop></linearGradient></defs><defs><linearGradient id="grad2_0" x1="0%" y1="100%" x2="100%" y2="0%"><stop offset="30%" stop-color="#000000" stop-opacity="1"></stop><stop offset="70%" stop-color="#000000" stop-opacity="1"></stop></linearGradient></defs><g transform="translate(410, 600)"><path d="M-327 0C-328.2 -48.9 -329.4 -97.8 -302.1 -125.1C-274.8 -152.5 -219 -158.2 -188.1 -188.1C-157.2 -218 -151.2 -272.1 -124 -299.3C-96.8 -326.5 -48.4 -326.8 0 -327L0 0Z" fill="#ff0027"></path></g><g transform="translate(0, 0)"><path d="M327 0C319.5 41.5 311.9 82.9 297.5 123.2C283.1 163.5 261.8 202.7 231.2 231.2C200.7 259.8 161 277.7 120.9 291.9C80.9 306.1 40.4 316.6 0 327L0 0Z" fill="#ff0027"></path></g></svg>