<svg id="visual" viewBox="0 0 900 600" width="900" height="600" xmlns="http://www.w3.org/2000/svg" xmlns:xlink="http://www.w3.org/1999/xlink" version="1.1"><rect x="0" y="0" width="900" height="600" fill="#000000"></rect><path d="M0 567L7.8 570.2C15.7 573.3 31.3 579.7 47.2 581C63 582.3 79 578.7 94.8 577C110.7 575.3 126.3 575.7 142 576.5C157.7 577.3 173.3 578.7 189.2 574.7C205 570.7 221 561.3 236.8 561.2C252.7 561 268.3 570 284.2 573.3C300 576.7 316 574.3 331.8 571.5C347.7 568.7 363.3 565.3 379 566.8C394.7 568.3 410.3 574.7 426.2 576.3C442 578 458 575 473.8 570.2C489.7 565.3 505.3 558.7 521 556.8C536.7 555 552.3 558 568.2 560.7C584 563.3 600 565.7 615.8 569.5C631.7 573.3 647.3 578.7 663.2 578.5C679 578.3 695 572.7 710.8 567.7C726.7 562.7 742.3 558.3 758 556.7C773.7 555 789.3 556 805.2 555.8C821 555.7 837 554.3 852.8 554.8C868.7 555.3 884.3 557.7 892.2 558.8L900 560L900 601L892.2 601C884.3 601 868.7 601 852.8 601C837 601 821 601 805.2 601C789.3 601 773.7 601 758 601C742.3 601 726.7 601 710.8 601C695 601 679 601 663.2 601C647.3 601 631.7 601 615.8 601C600 601 584 601 568.2 601C552.3 601 536.7 601 521 601C505.3 601 489.7 601 473.8 601C458 601 442 601 426.2 601C410.3 601 394.7 601 379 601C363.3 601 347.7 601 331.8 601C316 601 300 601 284.2 601C268.3 601 252.7 601 236.8 601C221 601 205 601 189.2 601C173.3 601 157.7 601 142 601C126.3 601 110.7 601 94.8 601C79 601 63 601 47.2 601C31.3 601 15.7 601 7.8 601L0 601Z" fill="#ff0027" stroke-linecap="round" stroke-linejoin="miter"></path></svg>