<svg id="visual" viewBox="0 0 1444 100" width="1444" height="100" xmlns="http://www.w3.org/2000/svg" xmlns:xlink="http://www.w3.org/1999/xlink" version="1.1"><rect x="0" y="0" width="1444" height="100" fill="#000000"></rect><path d="M0 75L10 75.2C20 75.3 40 75.7 60 76.3C80 77 100 78 120.2 77.3C140.3 76.7 160.7 74.3 180.8 72.7C201 71 221 70 241 71.2C261 72.3 281 75.7 301 76C321 76.3 341 73.7 361 71C381 68.3 401 65.7 421 64.2C441 62.7 461 62.3 481.2 64.7C501.3 67 521.7 72 541.8 74.3C562 76.7 582 76.3 602 77.2C622 78 642 80 662 81C682 82 702 82 722 80.2C742 78.3 762 74.7 782 73.8C802 73 822 75 842.2 76.2C862.3 77.3 882.7 77.7 902.8 77.3C923 77 943 76 963 77.3C983 78.7 1003 82.3 1023 84C1043 85.7 1063 85.3 1083 85.2C1103 85 1123 85 1143 82.2C1163 79.3 1183 73.7 1203.2 70.2C1223.3 66.7 1243.7 65.3 1263.8 66C1284 66.7 1304 69.3 1324 70.5C1344 71.7 1364 71.3 1384 70.3C1404 69.3 1424 67.7 1434 66.8L1444 66L1444 101L1434 101C1424 101 1404 101 1384 101C1364 101 1344 101 1324 101C1304 101 1284 101 1263.8 101C1243.7 101 1223.3 101 1203.2 101C1183 101 1163 101 1143 101C1123 101 1103 101 1083 101C1063 101 1043 101 1023 101C1003 101 983 101 963 101C943 101 923 101 902.8 101C882.7 101 862.3 101 842.2 101C822 101 802 101 782 101C762 101 742 101 722 101C702 101 682 101 662 101C642 101 622 101 602 101C582 101 562 101 541.8 101C521.7 101 501.3 101 481.2 101C461 101 441 101 421 101C401 101 381 101 361 101C341 101 321 101 301 101C281 101 261 101 241 101C221 101 201 101 180.8 101C160.7 101 140.3 101 120.2 101C100 101 80 101 60 101C40 101 20 101 10 101L0 101Z" fill="#ff0027" stroke-linecap="round" stroke-linejoin="miter"></path></svg>