<svg id="visual" viewBox="0 0 1444 700" width="1444" height="700" xmlns="http://www.w3.org/2000/svg" xmlns:xlink="http://www.w3.org/1999/xlink" version="1.1"><rect x="0" y="0" width="1444" height="700" fill="#000000"></rect><path d="M0 132L20 140.7C40 149.3 80 166.7 120.2 173C160.3 179.3 200.7 174.7 240.8 187.3C281 200 321 230 361 242.8C401 255.7 441 251.3 481.2 229.3C521.3 207.3 561.7 167.7 601.8 169.3C642 171 682 214 722 234.8C762 255.7 802 254.3 842.2 233.8C882.3 213.3 922.7 173.7 962.8 165.2C1003 156.7 1043 179.3 1083 183.2C1123 187 1163 172 1203.2 180.5C1243.3 189 1283.7 221 1323.8 212.3C1364 203.7 1404 154.3 1424 129.7L1444 105L1444 0L1424 0C1404 0 1364 0 1323.8 0C1283.7 0 1243.3 0 1203.2 0C1163 0 1123 0 1083 0C1043 0 1003 0 962.8 0C922.7 0 882.3 0 842.2 0C802 0 762 0 722 0C682 0 642 0 601.8 0C561.7 0 521.3 0 481.2 0C441 0 401 0 361 0C321 0 281 0 240.8 0C200.7 0 160.3 0 120.2 0C80 0 40 0 20 0L0 0Z" fill="#ff0027" stroke-linecap="round" stroke-linejoin="miter"></path></svg>